<svg id="visual" viewBox="0 0 900 600" width="900" height="600" xmlns="http://www.w3.org/2000/svg" xmlns:xlink="http://www.w3.org/1999/xlink" version="1.1"><path d="M33 0L45 24L54 48L39 72L33 96L59 120L36 144L45 168L54 192L33 216L36 240L38 264L44 288L57 312L41 336L41 360L59 384L59 408L49 432L43 456L40 480L36 504L56 528L39 552L46 576L38 600L0 600L0 576L0 552L0 528L0 504L0 480L0 456L0 432L0 408L0 384L0 360L0 336L0 312L0 288L0 264L0 240L0 216L0 192L0 168L0 144L0 120L0 96L0 72L0 48L0 24L0 0Z" fill="#fffeeb" stroke-linecap="square" stroke-linejoin="bevel"></path></svg>